<?xml version="1.0" encoding="UTF-8"?>
<svg width="24px" height="24px" viewBox="0 0 24 24" version="1.1" xmlns="http://www.w3.org/2000/svg" xmlns:xlink="http://www.w3.org/1999/xlink">
    <title>7346DC46-E46E-4002-819E-29350CB32037</title>
    <g id="Zubin" stroke="none" stroke-width="1" fill="none" fill-rule="evenodd">
        <g id="06.06-Leads---Reallocate-Search_1" transform="translate(-1380.000000, -84.000000)">
            <g id="Group-2" transform="translate(1000.000000, 0.000000)">
                <g id="Text-fields/2.-Outlined/b-1.-Activated/_Light-Copy" transform="translate(24.000000, 68.000000)">
                    <g id="search-24px" transform="translate(356.000000, 16.000000)">
                        <polygon id="Path" points="0 0 24 0 24 24 0 24"></polygon>
                        <path d="M15.5,14 L14.71,14 L14.43,13.73 C15.63,12.33 16.25,10.42 15.91,8.39 C15.44,5.61 13.12,3.39 10.32,3.05 C6.09,2.53 2.53,6.09 3.05,10.32 C3.39,13.12 5.61,15.44 8.39,15.91 C10.42,16.25 12.33,15.63 13.73,14.43 L14,14.71 L14,15.5 L18.25,19.75 C18.66,20.16 19.33,20.16 19.74,19.75 C20.15,19.34 20.15,18.67 19.74,18.26 L15.5,14 Z M9.5,14 C7.01,14 5,11.99 5,9.5 C5,7.01 7.01,5 9.5,5 C11.99,5 14,7.01 14,9.5 C14,11.99 11.99,14 9.5,14 Z" id="Shape" fill="#879FAE"></path>
                    </g>
                </g>
            </g>
        </g>
    </g>
</svg>